<svg width="19" height="32" viewBox="0 0 19 32" fill="none" xmlns="http://www.w3.org/2000/svg">
<path d="M13.4102 22.6668H4.80829C4.04304 22.6667 3.30435 22.1883 2.73201 21.3222C2.15967 20.456 1.79339 19.2622 1.70246 17.9667C1.61154 16.6711 1.80229 15.3637 2.23862 14.2918C2.67494 13.2198 3.32658 12.4578 4.07021 12.1498C4.22187 10.1221 4.75988 8.23547 5.60156 6.77981C6.44323 5.32416 7.54199 4.38008 8.72894 4.09269C9.9159 3.80529 11.1254 4.19049 12.1714 5.18907C13.2175 6.18764 14.0423 7.74434 14.5191 9.61989C15.4202 10.0729 16.1954 11.0647 16.7025 12.4133C17.2096 13.762 17.4145 15.3771 17.2798 16.9625C17.145 18.5479 16.6796 19.9973 15.9689 21.045C15.2582 22.0928 14.3497 22.6685 13.4102 22.6668Z" fill="#D9E2EC"/>
<path d="M11.4552 18C11.3525 18.0002 11.2508 17.9658 11.1559 17.8987C11.061 17.8317 10.9749 17.7333 10.9024 17.6093L9.50025 15.2187L8.09814 17.6094C7.95119 17.8568 7.75279 17.995 7.54627 17.9939C7.33975 17.9928 7.14188 17.8524 6.99585 17.6034C6.84982 17.3544 6.76749 17.017 6.76685 16.6649C6.7662 16.3128 6.84729 15.9745 6.9924 15.724L8.94738 12.3906C9.01997 12.2668 9.10616 12.1686 9.20103 12.1015C9.2959 12.0345 9.39758 12 9.50027 12C9.60296 12 9.70464 12.0345 9.79951 12.1015C9.89438 12.1686 9.98057 12.2668 10.0532 12.3906L12.0081 15.724C12.1175 15.9104 12.1919 16.148 12.2221 16.4066C12.2522 16.6652 12.2367 16.9333 12.1776 17.1769C12.1184 17.4205 12.0182 17.6287 11.8896 17.7752C11.761 17.9217 11.6099 17.9999 11.4552 18Z" fill="#627D98"/>
<path d="M9.50013 28C9.39743 28 9.29573 27.9656 9.20084 27.8986C9.10596 27.8316 9.01974 27.7334 8.94712 27.6096C8.8745 27.4858 8.8169 27.3388 8.77761 27.177C8.73832 27.0152 8.71811 26.8418 8.71814 26.6667V13.3333C8.71814 12.9797 8.80053 12.6406 8.94718 12.3905C9.09383 12.1405 9.29273 12 9.50013 12C9.70753 12 9.90643 12.1405 10.0531 12.3905C10.1997 12.6406 10.2821 12.9797 10.2821 13.3333V26.6667C10.2821 26.8418 10.2619 27.0152 10.2226 27.177C10.1834 27.3388 10.1258 27.4858 10.0531 27.6096C9.98052 27.7334 9.8943 27.8316 9.79942 27.8986C9.70453 27.9656 9.60283 28 9.50013 28Z" fill="#627D98"/>
</svg>
