<svg width="24" height="25" viewBox="0 0 24 25" fill="none" xmlns="http://www.w3.org/2000/svg">
<path fill-rule="evenodd" clip-rule="evenodd" d="M20.8536 20.7524L16.9994 16.8983C18.2445 15.4879 19 13.6352 19 11.606C19 7.18768 15.4183 3.60596 11 3.60596C6.58172 3.60596 3 7.18768 3 11.606C3 16.0242 6.58172 19.606 11 19.606C13.0292 19.606 14.882 18.8504 16.2923 17.6054L20.1464 21.4595C20.3417 21.6548 20.6583 21.6548 20.8536 21.4595C21.0488 21.2642 21.0488 20.9477 20.8536 20.7524ZM18 11.606C18 15.472 14.866 18.606 11 18.606C7.13401 18.606 4 15.472 4 11.606C4 7.73996 7.13401 4.60596 11 4.60596C14.866 4.60596 18 7.73996 18 11.606Z" fill="#BFBFBF"/>
</svg>
