<svg width="18" height="20" viewBox="0 0 18 20" fill="none" xmlns="http://www.w3.org/2000/svg">
<path fill-rule="evenodd" clip-rule="evenodd" d="M14 1.60596H15.5C16.8807 1.60596 18 2.72524 18 4.10596V17.1133C18 18.494 16.8807 19.6133 15.5 19.6133H2.5C1.11929 19.6133 0 18.494 0 17.1133V4.10596C0 2.72524 1.11929 1.60596 2.5 1.60596H4V1.10596C4 0.829815 4.22386 0.605957 4.5 0.605957C4.77614 0.605957 5 0.829815 5 1.10596V1.60596H13V1.10596C13 0.829815 13.2239 0.605957 13.5 0.605957C13.7761 0.605957 14 0.829815 14 1.10596V1.60596ZM13 2.60596H5V3.10596C5 3.3821 4.77614 3.60596 4.5 3.60596C4.22386 3.60596 4 3.3821 4 3.10596V2.60596H2.5C1.67157 2.60596 1 3.27753 1 4.10596V6.60596H17V4.10596C17 3.27753 16.3284 2.60596 15.5 2.60596H14V3.10596C14 3.3821 13.7761 3.60596 13.5 3.60596C13.2239 3.60596 13 3.3821 13 3.10596V2.60596ZM1 7.60596H17V17.1133C17 17.9417 16.3284 18.6133 15.5 18.6133H2.5C1.67157 18.6133 1 17.9417 1 17.1133V7.60596Z" fill="#999999"/>
</svg>
