<svg width="24" height="25" viewBox="0 0 24 25" fill="none" xmlns="http://www.w3.org/2000/svg">
<path fill-rule="evenodd" clip-rule="evenodd" d="M17 3.60596H18.5C19.8807 3.60596 21 4.72524 21 6.10596V19.1133C21 20.494 19.8807 21.6133 18.5 21.6133H5.5C4.11929 21.6133 3 20.494 3 19.1133V6.10596C3 4.72524 4.11929 3.60596 5.5 3.60596H7V3.10596C7 2.82981 7.22386 2.60596 7.5 2.60596C7.77614 2.60596 8 2.82981 8 3.10596V3.60596H16V3.10596C16 2.82981 16.2239 2.60596 16.5 2.60596C16.7761 2.60596 17 2.82981 17 3.10596V3.60596ZM16 4.60596H8V5.10596C8 5.3821 7.77614 5.60596 7.5 5.60596C7.22386 5.60596 7 5.3821 7 5.10596V4.60596H5.5C4.67157 4.60596 4 5.27753 4 6.10596V8.60596H20V6.10596C20 5.27753 19.3284 4.60596 18.5 4.60596H17V5.10596C17 5.3821 16.7761 5.60596 16.5 5.60596C16.2239 5.60596 16 5.3821 16 5.10596V4.60596ZM4 9.60596H20V19.1133C20 19.9417 19.3284 20.6133 18.5 20.6133H5.5C4.67157 20.6133 4 19.9417 4 19.1133V9.60596Z" fill="#999999"/>
</svg>
